<svg width="162" height="125" viewBox="0 0 162 125" fill="none" xmlns="http://www.w3.org/2000/svg">
<path d="M144.69 16.9764C143.644 16.2789 142.37 15.8158 141.008 15.6372C139.645 15.4586 138.244 15.5713 136.958 15.9631L20.1684 51.3659C18.6417 51.8286 17.3502 52.6604 16.4873 53.7368C15.6243 54.8131 15.2363 56.0762 15.3812 57.3369C15.5262 58.5976 16.1963 59.7882 17.2914 60.7305C18.3864 61.6728 19.8475 62.3162 21.456 62.5644L53.1562 67.4567V97.6486C53.1404 98.8102 53.5794 99.9483 54.4158 100.914C55.2522 101.88 56.4471 102.629 57.8439 103.062C58.7797 103.364 59.7837 103.521 60.7982 103.523C61.7896 103.52 62.7705 103.366 63.684 103.069C64.5974 102.772 65.4254 102.337 66.1196 101.791L84.2157 87.8284L110.916 105.958C112.292 106.901 114.068 107.423 115.908 107.424C116.708 107.424 117.503 107.326 118.264 107.136C119.519 106.829 120.647 106.273 121.537 105.524C122.427 104.776 123.047 103.86 123.334 102.869L147.137 22.7256C147.448 21.6862 147.384 20.6011 146.953 19.5876C146.521 18.5742 145.739 17.6712 144.69 16.9764ZM20.424 56.9916C20.361 56.5697 20.4843 56.1437 20.7739 55.7825C21.0635 55.4213 21.5025 55.1461 22.0199 55.0013L129.076 22.549L55.1004 63.7733L22.4488 58.7344C21.9064 58.662 21.4115 58.4506 21.0441 58.1344C20.6766 57.8181 20.4582 57.4155 20.424 56.9916ZM62.5397 99.0295C62.1857 99.3027 61.7347 99.4887 61.2437 99.5641C60.7527 99.6394 60.2438 99.6008 59.7813 99.453C59.3188 99.3052 58.9235 99.0548 58.6453 98.7337C58.3672 98.4125 58.2187 98.0349 58.2187 97.6486V70.176L80.4077 85.2427L62.5397 99.0295ZM142.202 21.853L118.4 101.996C118.302 102.326 118.095 102.63 117.798 102.88C117.502 103.129 117.127 103.315 116.709 103.418C116.292 103.522 115.847 103.541 115.418 103.472C114.988 103.403 114.59 103.249 114.26 103.026L59.7408 66.0062L141.793 20.2811C142.009 20.5029 142.158 20.7593 142.229 21.0312C142.299 21.3032 142.29 21.584 142.202 21.853Z" fill="black"/>
</svg>
